<?xml version="1.0" encoding="utf-8"?>
<!-- Generator: Adobe Illustrator 25.2.3, SVG Export Plug-In . SVG Version: 6.00 Build 0)  -->
<svg version="1.0" xmlns="http://www.w3.org/2000/svg" xmlns:xlink="http://www.w3.org/1999/xlink" x="0px" y="0px"
	 viewBox="0 0 500 500" style="enable-background:new 0 0 500 500;" xml:space="preserve">
<style type="text/css">
	.st0{fill:#F5F5F5;}
	.st1{fill:#E0E0E0;}
	.st2{fill:#DE5153;}
	.st3{fill:#4F403D;}
	.st4{fill:#FFFFFF;}
	.st5{fill:#64514C;}
	.st6{fill:#DE5E7E;}
	.st7{opacity:0.1;}
	.st8{fill:#DE3C30;}
	.st9{opacity:0.4;fill:#FFFFFF;}
	.st10{opacity:0.15;}
	.st11{fill:#644E47;}
	.st12{opacity:0.5;fill:#4F3E38;}
	.st13{fill:#4F3E38;}
	.st14{fill:#382B27;}
	.st15{fill:#FAFAFA;}
	.st16{fill:#383233;}
	.st17{fill:#FFD394;}
	.st18{fill:#BAE0B7;}
	.st19{fill:#4F3328;}
	.st20{fill:#C8F0C4;}
	.st21{fill:#F27C3E;}
	.st22{fill:#DE4043;}
	.st23{fill:#C4EBC0;}
</style>
<g id="Floor">
	<path id="Floor_12_" class="st0" d="M102.2,451.87c81.64,44.96,214.01,44.96,295.66,0c81.64-44.96,81.64-117.86,0-162.81
		c-81.64-44.96-214.01-44.96-295.66,0C20.56,334.02,20.56,406.92,102.2,451.87z"/>
</g>
<g id="Shadows">
	<path id="Shadow_3_" class="st1" d="M85.54,420.16l6.12,3.54c1.67,0.97,4.39,0.97,6.06,0l180.79-104.38c1.67-0.97,1.67-2.53,0-3.5
		l-6.12-3.54c-1.67-0.97-4.39-0.97-6.06,0L85.54,416.66C83.86,417.62,83.86,419.19,85.54,420.16z"/>
	<path id="Shadow_15_" class="st1" d="M351.07,390.49c17.69,9.24,46.37,9.24,64.06,0c17.69-9.24,17.69-24.22,0-33.46
		c-17.69-9.24-46.37-9.24-64.06,0C333.38,366.27,333.38,381.25,351.07,390.49z"/>
	<path id="Shadow_16_" class="st1" d="M329.35,371.84c5.32,2.78,13.95,2.78,19.27,0c5.32-2.78,5.32-7.29,0-10.07
		c-5.32-2.78-13.95-2.78-19.27,0C324.03,364.56,324.03,369.06,329.35,371.84z"/>
</g>
<g id="Plants_1_">
	<g id="Plants">
		<g id="XMLID_2370_">
			<g id="XMLID_2387_">
				<path id="XMLID_2388_" class="st2" d="M93.03,373.13c0.24-8.88-2.23-23.77-10.98-38.63c-9.36-15.91-21.72-26.56-32.11-23.32
					c-9.67,3.02-7.55,16.14,7,30.44c10.2,10.03,20.54,22.76,25.25,37.3l8.18,18.74L93.03,373.13z"/>
			</g>
			<g id="XMLID_2379_">
				<path id="XMLID_2386_" class="st3" d="M93.03,373.13c0.24-8.88-2.23-23.77-10.98-38.63c-9.36-15.91-21.72-26.56-32.11-23.32
					c-9.67,3.02-7.55,16.14,7,30.44c10.2,10.03,20.54,22.76,25.25,37.3l8.18,18.74L93.03,373.13z"/>
			</g>
			<g id="XMLID_2371_">
				<path id="XMLID_2378_" class="st4" d="M91.41,379.75c-0.26-0.03-0.48-0.21-0.54-0.48c-6.23-25.36-22.02-52.04-36.73-62.07
					c-0.29-0.2-0.36-0.59-0.17-0.87c0.2-0.29,0.59-0.36,0.87-0.17c14.94,10.18,30.95,37.18,37.24,62.81
					c0.08,0.34-0.12,0.68-0.46,0.76C91.56,379.75,91.48,379.75,91.41,379.75z"/>
			</g>
		</g>
		<g id="XMLID_2366_">
			<path id="XMLID_2369_" class="st5" d="M93.12,401.89c0,0-6.21,6.22-17.28,8.65c-11.07,2.43-16.31-2.61-16.31-2.61
				s3.77-10.74,9.94-14.06c0,0-10.62,2.83-18.91,9.11c0,0-6.82,0.51-10.15-9.74c0,0,3.67-6.51,17.03-10.7c0,0-8.37-1.58-20.08,2.16
				c-0.87,0.41-5.47-12.83-6.99-18.97s0.98-6.22,5.74-7.81c4.76-1.58,21.2-3.38,24.39-0.89c3.19,2.48,5.27,11.49,5.27,11.49
				s2.59-5.32,1.62-9.88c0,0,4.76-1.94,10.31-0.37c5.55,1.57,5.36,4.24,5.6,8.2c0.25,4.23,0,7.07-0.93,11.88
				c0,0,3.56-3.47,2.98-15.46c0,0,7.73,5.85,11,11.08C99.63,379.2,99.73,393.39,93.12,401.89z"/>
			<g id="XMLID_2367_">
				<path id="XMLID_2368_" class="st4" d="M93.16,402.51c-0.23,0.01-0.47-0.1-0.59-0.32C82.44,384,47.63,364.24,35.48,362.62
					c-0.34-0.05-0.59-0.36-0.54-0.71c0.05-0.35,0.37-0.58,0.71-0.54c12.34,1.65,47.73,21.73,58.02,40.21
					c0.17,0.3,0.06,0.69-0.24,0.86C93.34,402.48,93.25,402.51,93.16,402.51z"/>
			</g>
		</g>
	</g>
	<g id="Plants_6_">
		<g id="XMLID_2493_">
			<g id="XMLID_2496_">
				<path id="XMLID_2501_" class="st6" d="M401.01,345.81c0,0,1.39-12.18,7.45-21.64c6.06-9.46,14.39-15.36,22.16-15.97
					c7.77-0.61,14.04,6.53,5.73,11.44c-8.31,4.91-23.08,9.92-29.88,28.28L401.01,345.81z"/>
				<path id="XMLID_2500_" class="st7" d="M401.01,345.81c0,0,1.39-12.18,7.45-21.64c6.06-9.46,14.39-15.36,22.16-15.97
					c7.77-0.61,14.04,6.53,5.73,11.44c-8.31,4.91-23.08,9.92-29.88,28.28L401.01,345.81z"/>
			</g>
			<g id="XMLID_2494_">
				<path id="XMLID_2495_" class="st4" d="M403.29,342.64c-0.03-0.01-0.06-0.01-0.08-0.02c-0.21-0.09-0.31-0.33-0.23-0.54
					c8.2-20.19,23.81-28.62,30.92-30.26c0.22-0.05,0.45,0.09,0.5,0.31c0.05,0.22-0.09,0.45-0.31,0.5
					c-6.96,1.6-22.26,9.89-30.33,29.76C403.67,342.58,403.48,342.68,403.29,342.64z"/>
			</g>
		</g>
		<g id="XMLID_2466_">
			<g id="XMLID_2490_">
				<g id="XMLID_2491_">
					<path id="XMLID_2492_" class="st6" d="M444.8,342.88c-0.7,1.59-2.43,2.41-4.05,3.06c-1.6,0.64-3.36,1.35-4.23,2.85
						c-1.75,3.03,1.13,7.29-0.76,10.24c-0.79,1.24-2.26,1.89-3.7,2.15c-1.2,0.22-2.42,0.22-3.64,0.33
						c-0.59-0.01-1.17-0.05-1.73-0.13c-1.67-0.24-3.48-0.32-5.01,0.53c-2.41,1.35-3.15,4.39-4.61,6.74
						c-1.75,2.81-4.85,4.64-8.11,5.09c-1.08,0.14-3.09,0.34-4.2-0.28c-0.09-0.05-0.16-0.09-0.23-0.14c-0.01,0-0.01-0.01-0.02-0.02
						c-0.15-0.17-0.34-0.39-0.42-0.51c-0.02-0.02-0.03-0.05-0.04-0.07c-0.43-1.57,0.27-3.21,0.3-4.83c0-0.1,0-0.2,0-0.29
						c-0.07-1.89-0.12-3.76-0.16-5.64c-0.09-3.46-0.13-6.93-0.1-10.4c0.02-2.25-0.25-4.71,0.7-6.83c1.05-2.33,3.68-2.38,4.67-4.67
						c0.4-0.91,0.61-1.89,0.99-2.81c1.15-2.7,3.92-4.65,6.86-4.79c4.58-0.23,8.68,3.47,13.26,3.14c1.18-0.09,2.34-0.45,3.5-0.67
						c3.71-0.69,7.99,0.36,10.08,3.5C445.01,339.71,445.43,341.44,444.8,342.88z"/>
				</g>
			</g>
			<g id="XMLID_2488_">
				<path id="XMLID_2489_" class="st4" d="M403.67,365.49c-0.01,0-0.02,0-0.03-0.01c-0.21-0.06-0.33-0.27-0.28-0.48
					c6.32-23.73,31.32-27.16,37.17-26.73c0.21,0.02,0.38,0.2,0.36,0.42c-0.02,0.21-0.2,0.38-0.42,0.36
					c-5.72-0.41-30.17,2.94-36.36,26.16C404.07,365.41,403.87,365.53,403.67,365.49z"/>
			</g>
			<g id="XMLID_2479_">
				<path id="XMLID_2487_" class="st4" d="M431.45,353.47c-0.08-0.01-0.15-0.05-0.21-0.11c-0.06-0.06-6.44-6.35-17.01-4.79
					c-0.21,0.03-0.41-0.12-0.44-0.33c-0.03-0.21,0.12-0.41,0.33-0.44c10.98-1.61,17.62,4.95,17.68,5.02c0.15,0.15,0.15,0.4,0,0.55
					C431.7,353.46,431.57,353.49,431.45,353.47z"/>
			</g>
		</g>
	</g>
</g>
<g id="Checklist">
	<g id="XMLID_482_">
		<g id="XMLID_478_">
			<path id="XMLID_2890_" class="st8" d="M95.79,420.37L92,418.18c-1.2-0.69-2.17-2.37-2.17-3.75l0-281.12
				c0-1.38,0.97-3.06,2.17-3.75l174.4-100.69c1.2-0.69,3.13-0.69,4.33,0l3.8,2.19c1.2,0.69,2.17,2.37,2.17,3.75v281.12
				c0,1.38-0.97,3.06-2.17,3.75l-174.4,100.69C98.92,421.06,96.99,421.06,95.79,420.37z"/>
			<path id="XMLID_2868_" class="st9" d="M276.66,34.47c-0.15-1.12-1.06-1.53-2.14-0.9l-174.4,100.69c-0.6,0.34-1.13,0.93-1.53,1.61
				l-8.13-4.69c0.4-0.68,0.93-1.26,1.53-1.61l174.4-100.69c1.2-0.69,3.14-0.69,4.33,0l3.8,2.19
				C275.61,31.7,276.52,33.17,276.66,34.47z"/>
			<path id="XMLID_2870_" class="st10" d="M99.74,420.55c-0.04,0.03-0.09,0.04-0.13,0.05c-0.07,0.03-0.14,0.06-0.22,0.08
				c-0.03,0.01-0.06,0.02-0.09,0.03c-0.13,0.04-0.26,0.07-0.4,0.1h-0.05c-0.86,0.16-1.81,0.09-2.58-0.21
				c-0.17-0.06-0.33-0.14-0.48-0.22l-3.8-2.19c-1.19-0.7-2.16-2.37-2.16-3.75V133.32c0-0.69,0.24-1.46,0.63-2.14l8.13,4.69
				c-0.4,0.68-0.64,1.45-0.64,2.14v281.12c0,0.49,0.12,0.88,0.33,1.14c0.27,0.33,0.68,0.47,1.16,0.37
				C99.54,420.62,99.64,420.59,99.74,420.55z"/>
		</g>
		<g id="XMLID_509_">
			<path id="XMLID_514_" class="st11" d="M222.21,80.64c-0.1-0.06-0.21-0.12-0.32-0.19l-3.6-2.07c-0.84-0.53-2.16-1.04-4.2-1.49
				c-0.62-0.14-1.18-0.3-1.67-0.46c-0.61-0.21-1.13-0.42-1.59-0.65l0.27-0.33v-0.01l-4.07-2.35v0.01c-0.32-0.18-0.66-0.33-1.07-0.43
				c-1.53-0.37-3.82,0.52-6.11,0.26c-1.45-0.16-2.9-0.79-4.15-2.47c-1.39-1.87-2.23-5.15-3.46-7.86l1.07-1.58
				c-0.11-0.07-0.22-0.13-0.34-0.19l-3.73-2.16c-0.6-0.35-1.29-0.56-2.08-0.56c-1.09,0-2.37,0.38-3.91,1.27
				c-8.93,5.16-9.23,17.41-12.45,25.46c-3.22,8.07-7.77,10.58-10.25,14.05c-2.5,3.46-2.65,6.03-8.14,13.6s-5.71,9.42-5.71,10.85
				v11.28l4.06,2.34l73.09-42.21L222.21,80.64z M155.19,124.11c-0.95,0.54-1.73-0.19-1.73-1.66c0-1.46,0.78-3.11,1.73-3.66
				c0.95-0.55,1.72,0.2,1.72,1.67C156.91,121.92,156.14,123.56,155.19,124.11z M187.3,92.46c-2.4,1.39-4.5,0.6-5.63-1.72
				c-2.83,0.55-4.94-2.19-4.94-6.89c0-5.54,2.92-11.71,6.52-13.79c2.4-1.39,4.5-0.6,5.62,1.72c2.84-0.56,4.94,2.17,4.94,6.89
				C193.81,84.21,190.9,90.38,187.3,92.46z M211.57,91.55c-0.95,0.55-1.72-0.19-1.72-1.65c0-1.47,0.77-3.1,1.72-3.65
				c0.96-0.55,1.73,0.19,1.73,1.66C213.3,89.37,212.53,91,211.57,91.55z"/>
			<path id="XMLID_499_" class="st12" d="M154.82,126.12l-7.86-4.54c-0.23,0.75-0.26,1.28-0.26,1.75v11.28l4.06,2.34l4.06-2.34
				V126.12z"/>
			<path id="XMLID_495_" class="st12" d="M162.94,112.05l4.06-9.38l-6.45-3.79c0,0,0,0,0,0c-1.9,2.62-2.44,4.74-4.99,8.9
				L162.94,112.05z"/>
			<path id="XMLID_489_" class="st12" d="M179.19,93.29l0.53-2.73c-1.8-0.75-2.99-3.18-2.99-6.71c0-4.7,2.11-9.85,4.95-12.58
				l-5.63-3.25c-2.4,5.47-3.29,11.92-5.25,16.82c-0.42,1.04-0.85,1.99-1.31,2.86L179.19,93.29z"/>
			<path id="XMLID_2735_" class="st13" d="M222.21,80.64c-0.1-0.06-0.21-0.12-0.32-0.19c-0.84-0.43-2.04-0.84-3.75-1.22
				c-3.24-0.73-4.62-1.87-5.72-2.8c-0.45-0.38-0.85-0.72-1.32-0.98c-0.32-0.19-0.67-0.34-1.09-0.44c-2.46-0.59-6.94,2.09-10.16-2.08
				c-0.03-0.04-0.07-0.09-0.1-0.13c-2.25-3.03-3.07-9.79-6.44-11.78c-0.11-0.07-0.22-0.13-0.34-0.19c-1.39-0.65-3.2-0.53-5.67,0.89
				c-8.93,5.16-9.23,17.41-12.45,25.46c-3.22,8.07-7.77,10.58-10.25,14.05c-2.5,3.46-2.64,6.03-8.14,13.6
				c-5.49,7.57-5.7,9.42-5.7,10.85v11.28l73.09-42.21V83.48C223.85,82.55,223.76,81.56,222.21,80.64z M159.24,126.45
				c-0.95,0.55-1.72-0.19-1.72-1.66c0-1.46,0.77-3.11,1.72-3.66c0.96-0.55,1.72,0.2,1.72,1.67
				C160.96,124.26,160.2,125.9,159.24,126.45z M187.3,92.46c-2.4,1.39-4.5,0.6-5.63-1.72c-0.57-1.16-0.89-2.7-0.89-4.55
				c0-5.54,2.92-11.71,6.52-13.79c0.54-0.31,1.07-0.52,1.57-0.62c2.84-0.56,4.94,2.17,4.94,6.89
				C193.81,84.21,190.9,90.38,187.3,92.46z M215.63,93.89c-0.96,0.55-1.73-0.19-1.73-1.65c0-1.47,0.77-3.1,1.73-3.65
				c0.95-0.55,1.72,0.19,1.72,1.66C217.35,91.71,216.58,93.34,215.63,93.89z"/>
			<path id="XMLID_483_" class="st14" d="M193.81,78.67c0,5.54-2.91,11.71-6.51,13.79c-2.4,1.39-4.5,0.6-5.63-1.72
				c0.51-0.1,1.03-0.3,1.58-0.62c3.6-2.08,6.51-8.25,6.51-13.79c0-1.85-0.32-3.39-0.89-4.55C191.71,71.22,193.81,73.95,193.81,78.67
				z"/>
			<path id="XMLID_508_" class="st14" d="M159.24,126.44c-0.95,0.55-1.73-0.19-1.73-1.65c0-1.47,0.78-3.11,1.73-3.66
				c0.95-0.55,1.72,0.2,1.72,1.67C160.96,124.26,160.19,125.89,159.24,126.44"/>
			<path id="XMLID_510_" class="st14" d="M215.62,93.89c-0.95,0.55-1.73-0.19-1.73-1.65c0-1.47,0.78-3.11,1.73-3.66
				c0.95-0.55,1.72,0.2,1.72,1.67C217.35,91.71,216.58,93.34,215.62,93.89"/>
		</g>
		<g id="XMLID_481_">
			<path id="XMLID_479_" class="st0" d="M111.43,160.55l151.76-87.62c0.72-0.41,1.88-0.41,2.6,0l1.46,0.84
				c0.72,0.41,1.3,1.42,1.3,2.25v231.52c0,0.83-0.58,1.84-1.3,2.25L115.5,397.42c-0.72,0.41-1.88,0.41-2.6,0l-1.47-0.85
				c-0.72-0.41-1.3-1.42-1.3-2.25V162.8C110.13,161.97,110.72,160.97,111.43,160.55z"/>
			<path id="XMLID_548_" class="st15" d="M268.51,75.64c-0.16-0.53-0.66-0.7-1.25-0.36L115.5,162.9c-0.36,0.21-0.69,0.56-0.92,0.97
				l-4.06-2.34c0.23-0.41,0.56-0.77,0.92-0.97L263.2,72.94c0.71-0.42,1.88-0.42,2.59,0l1.47,0.84
				C267.87,74.14,268.38,74.91,268.51,75.64z"/>
			<path id="XMLID_549_" class="st1" d="M115.19,397.56c-0.15,0.06-0.31,0.1-0.48,0.13c-0.08,0.01-0.17,0.02-0.25,0.03
				c-0.26,0.02-0.53,0.01-0.79-0.03c-0.17-0.03-0.33-0.07-0.48-0.13c-0.1-0.04-0.2-0.09-0.29-0.14l-1.46-0.84
				c-0.72-0.42-1.3-1.42-1.3-2.25V162.81c0-0.42,0.14-0.88,0.38-1.28l4.06,2.34c-0.23,0.41-0.38,0.87-0.38,1.28v231.52
				C114.2,397.38,114.62,397.73,115.19,397.56z"/>
		</g>
		<g id="XMLID_422_">
			<path id="XMLID_484_" class="st11" d="M234.37,105.73l-4.04-2.34c-1.04-0.6-2.41-0.61-4.06,0.12c-4.72,2.08-6.76,3.02-9.2,4.04
				c-0.56,0.23-1.13,0.46-1.76,0.71c-0.95,0.38-2.86,0.06-2.27-3.27l6.27-16.89c-0.03-0.02-0.06-0.03-0.09-0.05l-3.97-2.3
				c-0.18-0.11-0.4-0.19-0.66-0.23c-0.13-0.02-0.28-0.04-0.44-0.04c-2.57-0.06-3.3-16.62-3.32-17.13c0-0.01,0-0.01,0-0.01l-0.18-0.1
				l-3.93-2.26c-0.65-0.38-1.41-0.57-2.24-0.57c-1.1,0-2.35,0.34-3.72,1.05c-6.17,3.24-12.4,12.84-13.92,21.46
				c-0.96,5.44-6.43,13.81-9.59,16.89c-3.17,3.1-3.38,5.66-3.38,5.66l-2.46,13.94l-0.79,4.46c-0.58,3.33-3.99,6.55-3.99,6.55
				l-12.73,9.54c-7.97,6.62-10.22,13.3-11.75,21.57c0,0.01-0.01,0.05-0.01,0.06c-0.05,0.29,0.01,0.49,0.14,0.57
				c0.05,0.03,0.1,0.03,0.14,0.01c0,0,0,0,0-0.01c0.01,0.01,0.01,0.01,0.02,0l1.63-0.93l87.58-50.51c0.35-0.18,0.71-0.74,0.8-1.22
				c0.01-0.01,0.01-0.03,0.02-0.04c0-0.02-0.01-0.02,0-0.03c0.5-3.02,1.96-8.67,1.96-8.67
				C234.41,105.75,234.39,105.74,234.37,105.73z M209.05,80.14c-0.94,5.3-4.76,11.21-8.56,13.2c-2.62,1.37-4.53,0.52-5.17-1.89
				c-1.16,0.36-2.14,0.21-2.87-0.37c-1.22-0.96,9.94-20.11,10.85-19.69c0.81,0.37,1.39,1.16,1.68,2.29
				C208.11,72.73,209.89,75.38,209.05,80.14z"/>
			<path id="XMLID_511_" class="st12" d="M154.82,154.27l-6.38-3.68c-3.7,4.87-5.19,10-6.29,15.94c0,0.01-0.01,0.05-0.01,0.06
				c-0.05,0.29,0.01,0.49,0.14,0.57c0.05,0.03,0.1,0.03,0.14,0.01c0,0,0,0,0-0.01c0.01,0.01,0.01,0.01,0.02,0l0.02-0.01l5.03-3.99
				L154.82,154.27z"/>
			<path id="XMLID_500_" class="st12" d="M170.2,130.31l8.99,5.19l4.06-23.45l-8.11-4.68c-1.16,1.83-1.27,3.1-1.27,3.1l-2.46,13.94
				l-0.79,4.46C170.53,129.35,170.38,129.84,170.2,130.31z"/>
			<path id="XMLID_487_" class="st12" d="M191.1,76.72c-2.05,3.52-3.6,7.45-4.27,11.2c-0.41,2.33-1.65,5.2-3.18,7.95l7.72,4.46
				l3.84-8.86c-1.11,0.32-2.06,0.17-2.76-0.39c-0.63-0.49,2.02-5.8,4.86-10.78L191.1,76.72z"/>
			<path id="XMLID_2732_" class="st13" d="M234.43,105.76c-0.02-0.01-0.04-0.02-0.06-0.03c-1.04-0.59-2.4-0.59-4.04,0.13
				c-5.79,2.55-7.54,3.39-10.97,4.75c-0.92,0.37-2.77,0.07-2.29-3.06c0-0.07,0.02-0.14,0.03-0.21l0.79-4.46l2.19-12.15
				c0,0,0.5-1.91-0.77-2.63c-0.03-0.02-0.06-0.03-0.09-0.05c-0.26-0.13-0.59-0.21-1.01-0.22c-1.22-0.03-2.6-0.87-3.62-2.31
				c-1.17-1.64-1.87-4.06-1.36-6.95c0.92-5.21-0.09-8.86-2.4-10.22c-0.06-0.04-0.12-0.08-0.18-0.11c-1.49-0.79-3.49-0.66-5.83,0.57
				c-6.17,3.24-12.4,12.84-13.92,21.46c-0.96,5.44-6.43,13.81-9.59,16.89c-3.17,3.1-3.38,5.66-3.38,5.66l-2.46,13.94l-0.79,4.46
				c-0.58,3.33-4,6.55-4,6.55l-12.72,9.54c-5.98,4.97-8.82,10.18-10.47,15.85c0,0-4.77,3.7-5.07,4c0,0.01,0,0.01,0,0.01
				c-0.01,0.01-0.01,0.01,0.01,0l0.01-0.01l1.63-0.93l87.83-50.49c0,0,1.01-0.55,1.23-0.69c0.22-0.13,3.76-3.48,3.76-3.48
				C236.74,108.69,235.9,106.64,234.43,105.76z M209.05,80.14c-0.94,5.3-4.76,11.21-8.56,13.2c-2.62,1.37-4.53,0.52-5.17-1.89
				c-0.27-1.08-0.3-2.47-0.01-4.11c0.94-5.3,4.77-11.21,8.57-13.19c0.38-0.2,0.75-0.36,1.1-0.47
				C208.11,72.73,209.89,75.38,209.05,80.14z"/>
			<path id="XMLID_488_" class="st14" d="M209.05,80.14c-0.94,5.3-4.76,11.21-8.56,13.2c-2.62,1.37-4.53,0.52-5.17-1.89
				c0.35-0.11,0.72-0.26,1.11-0.46c3.8-1.99,7.63-7.9,8.56-13.2c0.29-1.64,0.27-3.03-0.01-4.11
				C208.11,72.73,209.89,75.38,209.05,80.14z"/>
			<path id="XMLID_221_" class="st14" d="M205.38,73.9L205.38,73.9c0.81,0,1.41,0.29,1.83,0.89c1.57,2.24,0.07,7.94-0.59,9.76
				c-0.91,2.54-6.8,8.49-8.42,8.49c-1.44-0.07-2.49-1.46-2.66-1.7c-0.26-1.09-0.26-2.46,0-3.96c0.93-5.23,4.71-11.07,8.44-13.01
				c0.37-0.19,0.71-0.34,1.03-0.44C205.15,73.91,205.27,73.9,205.38,73.9 M205.38,73.65c-0.13,0-0.26,0.01-0.4,0.02
				c-0.35,0.11-0.72,0.27-1.1,0.47c-3.8,1.98-7.63,7.89-8.57,13.19c-0.29,1.64-0.26,3.03,0.01,4.11c0,0,1.16,1.76,2.88,1.84
				c0.01,0,0.02,0,0.03,0c1.76,0,7.69-6,8.63-8.65C207.79,82.04,209.86,73.65,205.38,73.65L205.38,73.65z"/>
			<path id="XMLID_486_" class="st14" d="M142.43,167.17l89.47-51.43c0,0,1.01-0.55,1.23-0.69c0.22-0.13,3.76-3.49,3.76-3.49
				l-89.4,51.6C147.49,163.16,142.07,167.35,142.43,167.17z"/>
		</g>
		<g id="XMLID_832_">
			<g id="XMLID_1191_">
				<g id="XMLID_1198_">
					<polygon id="XMLID_1202_" class="st15" points="126.56,190.55 150.76,176.38 150.76,204.53 126.56,218.7 					"/>
					<path id="XMLID_1199_" class="st11" d="M127.56,191.13v25.82l22.2-13l0-25.83L127.56,191.13z M126.56,219.7
						c-0.17,0-0.34-0.04-0.5-0.13c-0.31-0.18-0.5-0.51-0.5-0.87v-28.14c0-0.35,0.19-0.68,0.5-0.86l24.2-14.17
						c0.31-0.18,0.69-0.18,1,0c0.31,0.18,0.5,0.51,0.5,0.87l0,28.14c0,0.35-0.19,0.68-0.5,0.86l-24.2,14.17
						C126.91,219.65,126.73,219.7,126.56,219.7z"/>
				</g>
				<g id="XMLID_1194_">
					<path id="XMLID_1197_" class="st1" d="M162.94,170.34v2.04c0,1.1,0.78,1.55,1.73,1l85.9-49.59c0.96-0.55,1.73-1.9,1.73-3v-2.04
						c0-1.1-0.78-1.55-1.73-1l-85.9,49.59C163.72,167.89,162.94,169.23,162.94,170.34z"/>
					<path id="XMLID_1196_" class="st1" d="M162.94,182.63v2.04c0,1.1,0.78,1.55,1.73,1l85.9-49.59c0.96-0.55,1.73-1.9,1.73-3v-2.04
						c0-1.1-0.78-1.55-1.73-1l-85.9,49.59C163.72,180.18,162.94,181.52,162.94,182.63z"/>
					<path id="XMLID_1195_" class="st1" d="M162.94,194.85v2.04c0,1.1,0.78,1.55,1.73,1l85.9-49.59c0.96-0.55,1.73-1.9,1.73-3v-2.04
						c0-1.1-0.78-1.55-1.73-1l-85.9,49.59C163.72,192.41,162.94,193.75,162.94,194.85z"/>
				</g>
				<g id="XMLID_1192_">
					<polygon id="XMLID_1193_" class="st8" points="139.06,204.94 133.43,199.52 135.86,194.39 139.06,197.48 152.39,169.26 
						154.82,171.59 					"/>
				</g>
			</g>
			<g id="XMLID_1180_">
				<g id="XMLID_1186_">
					<polygon id="XMLID_1190_" class="st15" points="126.56,242.15 150.76,227.98 150.76,256.12 126.56,270.29 					"/>
					<path id="XMLID_1187_" class="st11" d="M127.56,242.72v25.82l22.2-13l0-25.83L127.56,242.72z M126.56,271.29
						c-0.17,0-0.34-0.04-0.5-0.13c-0.31-0.18-0.5-0.51-0.5-0.87v-28.14c0-0.35,0.19-0.68,0.5-0.86l24.2-14.17
						c0.31-0.18,0.69-0.18,1,0c0.31,0.18,0.5,0.51,0.5,0.87l0,28.14c0,0.35-0.19,0.68-0.5,0.86l-24.2,14.17
						C126.91,271.25,126.73,271.29,126.56,271.29z"/>
				</g>
				<g id="XMLID_1182_">
					<path id="XMLID_1185_" class="st1" d="M162.94,221.93v2.04c0,1.1,0.78,1.55,1.73,1l85.9-49.59c0.96-0.55,1.73-1.9,1.73-3v-2.04
						c0-1.1-0.78-1.55-1.73-1l-85.9,49.59C163.72,219.49,162.94,220.83,162.94,221.93z"/>
					<path id="XMLID_1184_" class="st1" d="M162.94,234.23v2.04c0,1.1,0.78,1.55,1.73,1l85.9-49.59c0.96-0.55,1.73-1.9,1.73-3v-2.04
						c0-1.1-0.78-1.55-1.73-1l-85.9,49.59C163.72,231.78,162.94,233.12,162.94,234.23z"/>
					<path id="XMLID_1183_" class="st1" d="M162.94,246.45v2.04c0,1.1,0.78,1.55,1.73,1l85.9-49.59c0.96-0.55,1.73-1.9,1.73-3v-2.04
						c0-1.1-0.78-1.55-1.73-1l-85.9,49.59C163.72,244,162.94,245.35,162.94,246.45z"/>
				</g>
				<polygon id="XMLID_1181_" class="st8" points="139.06,256.54 133.43,251.12 135.86,245.99 139.06,249.07 152.39,220.85 
					154.82,223.19 				"/>
			</g>
			<g id="XMLID_1169_">
				<g id="XMLID_1175_">
					<polygon id="XMLID_1179_" class="st15" points="126.56,293.75 150.76,279.58 150.76,307.72 126.56,321.89 					"/>
					<path id="XMLID_1176_" class="st11" d="M127.56,294.32v25.82l22.2-13l0-25.83L127.56,294.32z M126.56,322.89
						c-0.17,0-0.34-0.04-0.5-0.13c-0.31-0.18-0.5-0.51-0.5-0.87v-28.14c0-0.35,0.19-0.68,0.5-0.86l24.2-14.17
						c0.31-0.18,0.69-0.18,1,0c0.31,0.18,0.5,0.51,0.5,0.87l0,28.14c0,0.36-0.19,0.68-0.5,0.86l-24.2,14.17
						C126.91,322.84,126.73,322.89,126.56,322.89z"/>
				</g>
				<g id="XMLID_1171_">
					<path id="XMLID_1174_" class="st1" d="M162.94,273.53v2.04c0,1.1,0.78,1.55,1.73,1l85.9-49.59c0.96-0.55,1.73-1.9,1.73-3v-2.04
						c0-1.1-0.78-1.55-1.73-1l-85.9,49.59C163.72,271.08,162.94,272.43,162.94,273.53z"/>
					<path id="XMLID_1173_" class="st1" d="M162.94,285.82v2.04c0,1.1,0.78,1.55,1.73,1l85.9-49.59c0.96-0.55,1.73-1.9,1.73-3v-2.04
						c0-1.1-0.78-1.55-1.73-1l-85.9,49.59C163.72,283.37,162.94,284.72,162.94,285.82z"/>
					<path id="XMLID_1172_" class="st1" d="M162.94,298.05v2.04c0,1.1,0.78,1.55,1.73,1l85.9-49.59c0.96-0.55,1.73-1.9,1.73-3v-2.04
						c0-1.1-0.78-1.55-1.73-1l-85.9,49.59C163.72,295.6,162.94,296.94,162.94,298.05z"/>
				</g>
			</g>
			<g id="XMLID_1110_">
				<g id="XMLID_1164_">
					<polygon id="XMLID_1168_" class="st15" points="126.56,345.34 150.76,331.17 150.76,359.32 126.56,373.49 					"/>
					<path id="XMLID_1165_" class="st11" d="M127.56,345.92v25.82l22.2-13l0-25.83L127.56,345.92z M126.56,374.49
						c-0.17,0-0.34-0.04-0.5-0.13c-0.31-0.18-0.5-0.51-0.5-0.87v-28.14c0-0.35,0.19-0.68,0.5-0.86l24.2-14.17
						c0.31-0.18,0.69-0.18,1,0c0.31,0.18,0.5,0.51,0.5,0.87l0,28.14c0,0.35-0.19,0.68-0.5,0.86l-24.2,14.17
						C126.91,374.44,126.73,374.49,126.56,374.49z"/>
				</g>
				<g id="XMLID_1114_">
					<path id="XMLID_1163_" class="st1" d="M162.94,325.13v2.04c0,1.1,0.78,1.55,1.73,1l85.9-49.59c0.96-0.55,1.73-1.9,1.73-3v-2.04
						c0-1.1-0.78-1.55-1.73-1l-85.9,49.59C163.72,322.68,162.94,324.02,162.94,325.13z"/>
					<path id="XMLID_1118_" class="st1" d="M162.94,337.42v2.04c0,1.1,0.78,1.55,1.73,1l85.9-49.59c0.96-0.55,1.73-1.9,1.73-3v-2.04
						c0-1.1-0.78-1.55-1.73-1l-85.9,49.59C163.72,334.97,162.94,336.31,162.94,337.42z"/>
					<path id="XMLID_1117_" class="st1" d="M162.94,349.64v2.04c0,1.1,0.78,1.55,1.73,1l85.9-49.59c0.96-0.55,1.73-1.9,1.73-3v-2.04
						c0-1.1-0.78-1.55-1.73-1l-85.9,49.59C163.72,347.2,162.94,348.54,162.94,349.64z"/>
				</g>
			</g>
		</g>
	</g>
</g>
<g id="Character">
	<g id="XMLID_1763_">
		<g id="Character_Boy">
			<g id="XMLID_551_">
				<g id="XMLID_628_">
					
						<ellipse id="XMLID_1031_" transform="matrix(0.1602 -0.9871 0.9871 0.1602 143.9469 522.5613)" class="st16" cx="379.07" cy="176.69" rx="10.85" ry="10.85"/>
					<g id="XMLID_631_">
						<g id="XMLID_636_">
							<g id="XMLID_831_">
								<path id="XMLID_1422_" class="st17" d="M366.16,210.55l-15.48,18.04l-20.79-9.02l-0.41,11.26c0,0,17.03,7.95,19.64,8.49
									c2.61,0.54,5.14,1.12,7.43-0.63c2.66-2.03,12.21-13.06,12.21-13.06L366.16,210.55z"/>
								<g id="XMLID_1421_">
									<path id="XMLID_1419_" class="st18" d="M380.21,201.32c-6.17-0.4-11.06,4.29-14.62,8.48c-3.57,4.2-8.19,10.8-8.19,10.8
										s2.49,7.27,9.05,9.47l11.3-13.44L380.21,201.32z"/>
								</g>
								<rect id="XMLID_1029_" x="397.41" y="360.21" class="st17" width="7.64" height="13.08"/>
								<polygon id="XMLID_1025_" class="st17" points="378.56,364.14 370.92,364.4 370.54,350.56 378.17,350.3 								"/>
								<path id="XMLID_1011_" class="st19" d="M404.54,256.53c0,7.3,0.94,51.51,0.94,51.51c0.18,2.1,2.15,5.97,1.72,14.03
									c-0.58,10.95-1.53,39.43-1.53,39.43s-3.58,3.55-8.64,0c0,0-6.92-39.39-8.29-50.24c-1.19-9.47-3.22-35.21-3.22-35.21
									l-4.24,35.72c0,0,1.25,7.12,1.52,12.15c0.27,5.03-4.14,30.53-4.14,30.53s-3.88,2.68-8.31,0.32c0,0-3.3-38.89-4.08-43.43
									c-0.79-4.54,2.53-54.8,2.53-54.8H404.54z"/>
								<path id="XMLID_1010_" class="st20" d="M397.2,203.76c3.33,0.59,5.98,3.11,6.71,6.42c0.36,1.64,0.63,3.59,0.63,5.8v14.97
									v25.59c-5.36,5.83-24.03,8.54-35.73,0c0,0,0.23-35.83,1.11-41.71c1.52-10.23,6.42-13.87,11.33-13.49l11.79,1.69
									L397.2,203.76z"/>
								<g id="XMLID_950_">
									<g id="XMLID_965_">
										<path id="XMLID_1009_" class="st16" d="M397.82,184.4c0,0-1.76,8.26-2.46,9.61c-0.7,1.36-2.16,1.74-2.16,1.74l0.12-5.81
											L397.82,184.4z"/>
										<path id="XMLID_985_" class="st16" d="M395.61,172.57c0,0,1.89-0.32,3.37,1.18c1.45,1.48,0.64,6.11-1.16,10.64l-3.31,0.38
											L395.61,172.57z"/>
										<path id="XMLID_984_" class="st17" d="M393.52,184.78c0.66,0.4,1.61-0.88,2.43-1.74c0.82-0.86,3.49-2.03,4.82,0.78
											c1.36,2.86-1.18,6.65-3.28,7.31c-3.63,1.14-4.17-1.19-4.17-1.19l-0.28,13.08c0,0-2.37,5.81-8.8,6.68
											c-6.43,0.87-5.11-4.43-2.99-7.03l0.01-3.98c0,0-3.29,0.5-4.89,0.25c-2.67-0.41-4.34-2.52-5.15-5.4
											c-1.3-4.64-1.79-8.38-0.69-17.5c1.21-9.99,12.83-10.1,19.11-6.15C395.91,173.85,393.52,184.78,393.52,184.78z"/>
										<path id="XMLID_983_" class="st16" d="M393.52,185.9c0.33,0.01,1.6-2.1,2.43-2.85c1.15-1.04-0.33-10.48-0.33-10.48
											s1.1-2.35-1.1-4.77c-1.57-1.73-4.19-1.92-8.67-2.62c-2.35-0.37-5.91-1.03-8.25-1.46c-2.8-0.52-5.12-1.07-7.1,0.65
											c-1.54,1.34-2.2,3.7-1.37,5.56c0.19,0.44,0.48,0.83,0.8,1.19c0.57,0.63,1.21,1.13,2.02,1.39c0,0,1.22,1.08,5.47,1.6
											c4.25,0.52,10.86-0.1,11.77-0.22c1.23-0.17,1.49,1.03,2.16,4.29C391.91,181.02,392.39,185.88,393.52,185.9z"/>
										<path id="XMLID_982_" class="st16" d="M395.61,173.3l4.01-2.15c-0.57-1.15-1.93-1.6-3.04-1.01
											C395.48,170.74,395.04,172.15,395.61,173.3z"/>
										<path id="XMLID_966_" class="st21" d="M381.26,198.7c0,0,5.95-1.2,8.03-2.31c1.39-0.74,2.54-2.02,2.88-2.85
											c0,0-0.39,1.77-1.63,3.36c-1.52,1.95-9.28,3.38-9.28,3.38L381.26,198.7z"/>
									</g>
									<g id="XMLID_951_">
										<path id="XMLID_964_" class="st16" d="M382.69,183.29c0,0.68,0.53,1.24,1.19,1.24c0.66,0,1.19-0.56,1.19-1.24
											c0-0.68-0.53-1.24-1.19-1.24C383.22,182.05,382.69,182.61,382.69,183.29z"/>
										<path id="XMLID_963_" class="st16" d="M383.95,178.79l2.55,1.41c0.38-0.73,0.11-1.64-0.59-2.03
											C385.2,177.78,384.33,178.06,383.95,178.79z"/>
										<path id="XMLID_961_" class="st21" d="M381.8,191.53l-2.72,1.02c0.27,0.78,1.1,1.18,1.85,0.9
											C381.67,193.17,382.06,192.31,381.8,191.53z"/>
										<path id="XMLID_960_" class="st16" d="M372.05,179.78l2.33-1.79c-0.47-0.67-1.38-0.81-2.02-0.31
											C371.71,178.17,371.58,179.12,372.05,179.78z"/>
										<path id="XMLID_953_" class="st16" d="M372.77,182.95c0,0.68,0.53,1.24,1.19,1.24c0.66,0,1.19-0.56,1.19-1.24
											c0-0.68-0.53-1.24-1.19-1.24C373.3,181.71,372.77,182.27,372.77,182.95z"/>
										<polygon id="XMLID_952_" class="st21" points="378.84,181.82 378.45,188.99 374.71,187.72 										"/>
									</g>
								</g>
								<path id="XMLID_949_" class="st16" d="M397.41,369.52v-1.09c-0.73,0.32-2.43,6.8-5.46,9.56c-2.41,2.2-5.7,4.74-6.53,7.19
									c-0.87,2.55,4.58,3.96,6.83,3.56c2.62-0.46,7.15-2.31,8.29-4.01c1.14-1.71,1.67-4.23,2.6-5.48c0.93-1.25,3.06-2.65,3.56-4.1
									c0.27-0.8-0.05-2.54-0.44-4.01c-0.35-1.35-0.74-2.84-1.2-2.71c0,0.16,0,0.83,0,0.83c-0.55,0.61-2.09,1.22-3.82,1.29
									C400.11,370.59,397.4,370.37,397.41,369.52z"/>
								<path id="XMLID_833_" class="st16" d="M370.84,362.04c-0.4,0.01-0.72,0.57-1.59,1.52c-1.06,1.14-2.79,2.38-4.49,3.23
									c-2.86,1.43-8.42,3.64-10.94,4.77c-1.57,0.71-1.5,2.61,0.13,3.69c1.63,1.08,5.55,1.86,10.26,0.81
									c2.57-0.57,5.91-2.95,8.02-2.82c2.12,0.13,6.07,0.1,7.63-0.98c1.56-1.08,0.94-3.37,0.5-5.35c-0.48-2.16-1.17-5.45-1.88-5.31
									l0.02,0.68c-0.92,1.39-5.59,1.96-7.61,0.93L370.84,362.04z"/>
							</g>
						</g>
					</g>
					<path id="XMLID_630_" class="st16" d="M385.53,276.05c0,0-6.11-1.72-10.64-6.1c0,0,2.05,3.84,8.16,7.42l-1.76,34.4
						L385.53,276.05z"/>
				</g>
			</g>
		</g>
		<g id="XMLID_485_">
			<g id="XMLID_513_">
				<g id="XMLID_515_">
					<path id="XMLID_1047_" class="st17" d="M353.09,329.01l-12.86,37.53c-0.37,1.09-1.92,1.09-2.29-0.01l-12.7-37.83L353.09,329.01
						z"/>
					<path id="XMLID_1044_" class="st16" d="M337.94,366.53c0.37,1.09,1.91,1.1,2.29,0.01l2.51-7.33l0,0
						c-2.21,1.18-4.89,1.03-6.95-0.39l-0.56-0.39L337.94,366.53z"/>
					<path id="XMLID_1043_" class="st22" d="M325.74,161.36l-0.01,3.67l-0.03,4.43l-0.45,159.24c2.94,3.36,7.3,5.07,11.72,5.52
						c6.73,0.7,13.64-1.51,16.1-5.21l0.45-159.15l0.02-8.47C353.23,166.88,325.49,166.86,325.74,161.36z"/>
					<path id="XMLID_1036_" class="st23" d="M325.65,175.33l-0.01,8.2c-0.08,2.38,4.98,3.91,10.83,4.45
						c7.76,0.73,16.9-1.37,17.01-4.52l0.02-6.04l-0.03-2.16c-0.11,3.15-9.25,5.26-17.02,4.52c-5.6-0.52-10.5-1.98-10.78-4.19l0-0.02
						C325.65,175.49,325.64,175.42,325.65,175.33z"/>
					<path id="XMLID_1033_" class="st22" d="M325.67,177.38c-0.2,5.52,27.62,5.45,27.82-0.07l0.04-8.21
						c-0.2,5.52-28.02,5.59-27.82,0.07L325.67,177.38z"/>
					<path id="XMLID_1032_" class="st23" d="M325.74,161.36l-0.04,8.1c-0.24,5.42,26.61,5.58,27.82,0.4
						c0.03-0.09,0.04-0.2,0.05-0.31l-0.03-8.16C353.23,166.88,325.49,166.86,325.74,161.36z"/>
					<path id="XMLID_550_" class="st7" d="M353.52,169.86l0.02-8.47c-0.14,2.48-5.82,4.32-12.12,4.55l-0.45,168.4l-0.74,32.19
						l12.86-37.53l-0.02,0c0,0,0,0,0,0L353.52,169.86z"/>
					<path id="XMLID_547_" class="st21" d="M325.87,126.97l-0.13,34.38c-0.11,2.35,4.9,3.9,10.69,4.47
						c7.76,0.76,16.94-1.29,17.12-4.43c0.01-0.01,0.01-0.01,0.01-0.04l0.12-34.5c0-6.86-13.92-8.59-22.23-5.73
						C328.33,122.18,326.12,124.09,325.87,126.97z"/>
				</g>
			</g>
		</g>
		<g id="XMLID_1762_">
			<path id="XMLID_1205_" class="st17" d="M416.17,267.94c-0.34,3.31-0.72,7.78-1.38,10.32c-2.29,8.83-5.22,11.47-9.13,11.73
				c-6.23,0.42-6.27-1.92-3.48-5.93c2.07-2.96,2.78-5.74,2.78-5.74c-1.23,0.92-2.21,1.63-2.99,1.93c-1.55,0.61-2.55-0.22-2.81-0.76
				c-0.2-0.42,0.88-0.84,2.07-2.3c1.53-1.86,2.31-3.34,4.4-4.88c0.78-0.58,1.03-1.63,1.26-2.58c0.32-1.25,0.53-21.27-0.6-25.41
				l-5.36-19.24c-4.36-2.99-9.01-17.81-2.38-20.96c6.23,0.7,10.76,8.84,17.55,33.98C417.33,242.56,416.87,261.1,416.17,267.94z"/>
			<path id="XMLID_1420_" class="st18" d="M397.2,203.76c0,0-2.52,1.85-2.69,6.04c-0.18,4.19,1.79,10.23,2.98,14.01
				c1.19,3.78,3.66,10.62,3.66,10.62s10.24-1.17,12.58-7.19c0,0-4.8-15.53-9.42-20.58C401.15,203.21,397.2,203.76,397.2,203.76z"/>
		</g>
		<path id="XMLID_1761_" class="st17" d="M331.6,207.52c0,0,2.5-1.99,7.25-1.21c2.3,0.38,1.42,9.07-5.97,11.5
			c-4.81,1.58-5.79,0.76-7.34,4.72c0,0-2.9-0.6-2.2-5.03c0.71-4.42,2.64-8.46,5.86-12.26c2.12-2.5,2.26-4.61,3.3-3.9
			c1.18,0.81,0.46,2.87,0.46,2.87L331.6,207.52z"/>
	</g>
</g>
</svg>
